<svg width="95" height="32" viewBox="0 0 95 24" fill="none" xmlns="http://www.w3.org/2000/svg">
<path d="M35.4231 23.5399V0.532387H38.8053V9.70251C39.4022 8.80412 40.209 8.09198 41.2259 7.5661C42.2427 7.04021 43.348 6.77727 44.5417 6.77727C46.7523 6.77727 48.5871 7.57705 50.0461 9.17662C51.5051 10.7543 52.2346 12.8249 52.2346 15.3886C52.2346 17.9523 51.483 20.034 49.9798 21.6335C48.4766 23.2112 46.6086 24 44.3759 24C43.1159 24 41.9885 23.7371 40.9938 23.2112C40.0211 22.6634 39.2916 21.9732 38.8053 21.1405V23.5399H35.4231ZM40.0322 19.3656C41.0269 20.3955 42.2428 20.9104 43.6796 20.9104C45.1165 20.9104 46.3213 20.3955 47.2939 19.3656C48.2887 18.3358 48.7861 17.0101 48.7861 15.3886C48.7861 13.7672 48.2887 12.4415 47.2939 11.4116C46.3213 10.3818 45.1165 9.86685 43.6796 9.86685C42.2428 9.86685 41.0269 10.3818 40.0322 11.4116C39.0595 12.4415 38.5732 13.7672 38.5732 15.3886C38.5732 17.0101 39.0595 18.3358 40.0322 19.3656Z" fill="#0066FF"/>
<path d="M54.9324 23.5399V0.532387H58.3146V23.5399H54.9324Z" fill="#0066FF"/>
<path d="M61.7138 17.7222V7.23742H65.096V17.032C65.096 18.3029 65.4054 19.267 66.0244 19.9244C66.6655 20.5817 67.5718 20.9104 68.7434 20.9104C69.9592 20.9104 70.9761 20.4503 71.794 19.53C72.634 18.6097 73.054 17.4484 73.054 16.046V7.23742H76.4362V23.5399H73.054V20.9104C71.9487 22.9701 70.1692 24 67.7155 24C65.9912 24 64.5544 23.4632 63.4049 22.3895C62.2775 21.3158 61.7138 19.7601 61.7138 17.7222Z" fill="#0066FF"/>
<path d="M95 16.1117H81.9687C82.0129 17.5579 82.4992 18.7521 83.4276 19.6943C84.3561 20.6146 85.5387 21.0748 86.9756 21.0748C88.2135 21.0748 89.1973 20.7899 89.9267 20.2202C90.6783 19.6286 91.3304 18.785 91.8831 17.6894L94.5026 19.2342C93.7068 20.8337 92.69 22.0279 91.452 22.8168C90.2362 23.6056 88.7109 24 86.8761 24C84.5771 24 82.6208 23.2002 81.0071 21.6007C79.3933 19.9792 78.5865 17.9085 78.5865 15.3886C78.5865 12.8688 79.3933 10.8091 81.0071 9.20949C82.6429 7.58801 84.6545 6.77727 87.0419 6.77727C89.4073 6.77727 91.3194 7.54419 92.7784 9.07802C94.2595 10.5899 95 12.5401 95 14.9285V16.1117ZM86.9756 9.47243C85.7598 9.47243 84.6987 9.85589 83.7924 10.6228C82.8861 11.3897 82.2782 12.3648 81.9687 13.548H91.7836C91.651 12.2772 91.1094 11.2802 90.1588 10.5571C89.2304 9.83398 88.1693 9.47243 86.9756 9.47243Z" fill="#0066FF"/>
<path d="M2.50359 14.7823L1.89303 15.1317L14.0933 22.1724L14.0936 22.1725C14.1418 22.2001 14.2535 22.2359 14.4073 22.2359C14.5612 22.2358 14.6742 22.2 14.7242 22.1714L24.476 16.5905L23.8622 16.2363L25.3974 15.3577L25.6988 15.5316C26.0331 15.7244 26.3717 16.0834 26.369 16.5968C26.3663 17.1086 26.0259 17.4644 25.6921 17.6554L15.4934 23.4921C15.1552 23.6856 14.7607 23.7608 14.4075 23.7608C14.0545 23.7608 13.6598 23.6859 13.322 23.4918L0.670549 16.1908C0.336161 15.9981 -0.00265134 15.639 3.72927e-05 15.1254C0.00271651 14.6137 0.343136 14.2579 0.676901 14.0669L0.971623 13.8982L2.50359 14.7823Z" fill="#0066FF"/>
<path fill-rule="evenodd" clip-rule="evenodd" d="M1.89302 7.17044L14.0933 14.2111L14.0937 14.2113C14.1421 14.2389 14.2537 14.2746 14.4073 14.2746C14.5612 14.2745 14.6742 14.2387 14.7241 14.2101L24.476 8.62923L12.2757 1.58863L12.2754 1.58842C12.227 1.56078 12.1151 1.52498 11.9612 1.52495C11.807 1.52491 11.694 1.56076 11.6443 1.5892L1.89302 7.17044ZM0.676896 6.10559C0.343131 6.29661 0.00271138 6.65235 3.21772e-05 7.16413C-0.00265561 7.67754 0.335934 8.03654 0.670215 8.22934L13.322 15.5305C13.6598 15.7245 14.0545 15.7996 14.4075 15.7995C14.7607 15.7995 15.1552 15.7243 15.4934 15.5308L25.6921 9.69412C26.0259 9.50309 26.3663 9.14734 26.369 8.63555C26.3717 8.12197 26.0329 7.7629 25.6985 7.57015L13.047 0.269177C12.7093 0.0751732 12.3145 7.93281e-05 11.9615 6.4807e-08C11.6083 -8.04725e-05 11.2135 0.0748955 10.875 0.268576L0.676896 6.10559Z" fill="#0066FF"/>
<path d="M2.75765 10.5773L1.89301 11.1762L14.0933 18.2169L14.0936 18.217C14.1418 18.2446 14.2535 18.2804 14.4073 18.2804C14.5612 18.2803 14.6742 18.2445 14.7241 18.2159L24.476 12.635L23.6368 11.973L25.1099 11.0811L25.6988 11.5761C26 11.8368 26.3717 12.1279 26.369 12.6413C26.3663 13.1531 26.0259 13.5089 25.6921 13.6999L15.4934 19.5366C15.1552 19.7301 14.7606 19.8053 14.4075 19.8053C14.0545 19.8053 13.6598 19.7303 13.322 19.5363L0.670527 12.2353C0.33614 12.0426 -0.00267274 11.6835 1.58969e-05 11.1699C0.00269512 10.6582 0.391142 10.3572 0.67688 10.1114L1.22569 9.69325L2.75765 10.5773Z" fill="#0066FF"/>
</svg>
